<?xml version="1.0" standalone="no"?>
<!DOCTYPE svg PUBLIC "-//W3C//DTD SVG 20010904//EN"
 "http://www.w3.org/TR/2001/REC-SVG-20010904/DTD/svg10.dtd">
<svg version="1.0" xmlns="http://www.w3.org/2000/svg"
 width="85.000000pt" height="85.000000pt" viewBox="0 0 85.000000 85.000000"
 preserveAspectRatio="xMidYMid meet">
<metadata>
Created by potrace 1.11, written by Peter Selinger 2001-2013
</metadata>
<g transform="translate(0.000000,85.000000) scale(0.100000,-0.100000)"
fill="#000000" stroke="none">
<path d="M60 688 c1 -7 49 -137 108 -288 l107 -275 41 -3 41 -3 29 72 29 73
118 1 c65 0 122 -2 127 -5 5 -3 19 -35 32 -70 l23 -65 43 -3 c24 -2 42 0 39 5
-6 10 -202 521 -211 549 -6 18 -14 22 -49 20 l-42 -1 -89 -233 -90 -233 -31
78 c-17 43 -57 149 -90 236 l-58 157 -39 0 c-24 0 -38 -5 -38 -12z m529 -215
c24 -65 46 -124 48 -130 4 -10 -19 -13 -97 -13 -78 0 -101 3 -97 13 2 6 24 65
48 129 24 65 46 118 49 118 3 0 25 -53 49 -117z"/>
</g>
</svg>
